<?xml version="1.0" standalone="no"?>
<!DOCTYPE svg PUBLIC "-//W3C//DTD SVG 20010904//EN"
 "http://www.w3.org/TR/2001/REC-SVG-20010904/DTD/svg10.dtd">
<svg version="1.0" xmlns="http://www.w3.org/2000/svg"
 width="1080.000000pt" height="911.000000pt" viewBox="0 0 1080.000000 911.000000"
 preserveAspectRatio="xMidYMid meet">

<g transform="translate(0.000000,911.000000) scale(0.100000,-0.100000)"
fill="#000000" stroke="none">
<path d="M5340 8497 c-423 -31 -678 -354 -680 -859 0 -89 12 -117 24 -54 9 49
97 222 145 286 115 154 296 254 510 281 276 35 634 -68 1015 -292 279 -165
492 -334 811 -644 181 -176 478 -524 620 -728 406 -581 624 -1048 721 -1542
25 -127 26 -470 2 -570 -71 -293 -229 -481 -486 -579 -39 -15 -70 -32 -66 -37
7 -12 150 -11 216 1 134 26 167 36 232 67 96 46 160 96 222 172 149 180 220
460 194 763 -14 165 -33 281 -70 423 -197 764 -679 1559 -1362 2245 -388 390
-786 686 -1163 865 -179 85 -272 120 -432 159 -161 41 -305 54 -453 43z"/>
<path d="M3846 7872 c-3 -6 -9 -32 -12 -59 -9 -72 -24 -89 -83 -97 -102 -13
-103 -28 -5 -46 73 -14 76 -18 89 -107 8 -58 22 -77 29 -41 3 13 11 48 18 78
l13 55 60 13 c33 7 71 16 85 19 24 5 24 5 4 13 -11 5 -46 11 -76 15 -30 4 -60
10 -67 14 -6 4 -17 36 -23 72 -12 67 -21 88 -32 71z"/>
<path d="M5325 7781 c-273 -30 -462 -195 -537 -468 -29 -108 -29 -339 0 -503
48 -263 210 -671 372 -935 23 -39 55 -90 70 -115 277 -459 792 -997 1245
-1300 487 -326 947 -476 1267 -415 260 50 435 216 495 472 25 107 24 359 -1
498 -132 725 -726 1609 -1472 2191 -136 106 -365 259 -494 329 -340 186 -681
274 -945 246z m330 -232 c301 -84 645 -497 648 -779 1 -155 -75 -228 -229
-218 -66 4 -88 12 -177 56 -276 139 -519 467 -534 722 -4 68 -2 80 24 130 22
43 38 60 73 78 50 25 128 29 195 11z m1138 -735 c212 -55 458 -278 586 -531
43 -84 75 -214 68 -273 -18 -147 -118 -217 -266 -186 -295 62 -653 458 -677
751 -11 120 26 198 111 236 49 23 99 24 178 3z m-1250 -219 c103 -42 212 -117
307 -214 321 -325 389 -705 138 -761 -206 -46 -560 216 -718 530 -50 100 -70
174 -70 258 0 82 16 125 62 169 63 60 161 66 281 18z m993 -510 c64 -42 140
-138 165 -210 23 -65 23 -85 5 -129 -51 -122 -276 -12 -367 179 -17 35 -29 77
-29 100 0 49 31 102 62 107 45 7 113 -13 164 -47z m937 -517 c264 -126 495
-395 562 -653 37 -144 1 -251 -100 -296 -204 -93 -605 184 -770 533 -98 207
-83 383 38 439 67 32 174 22 270 -23z m-1048 -23 c57 -9 188 -75 266 -134 174
-132 332 -346 386 -522 24 -81 22 -194 -6 -247 -58 -113 -205 -129 -378 -41
-245 126 -459 383 -524 632 -10 39 -19 89 -19 111 0 99 58 183 141 203 43 11
55 10 134 -2z"/>
<path d="M2847 7500 c-5 -22 -13 -31 -34 -36 -56 -12 -58 -16 -15 -31 34 -12
44 -21 49 -44 8 -42 21 -45 31 -8 8 34 20 44 65 54 35 7 27 21 -17 29 -26 5
-37 13 -45 36 -13 38 -27 38 -34 0z"/>
<path d="M3406 7379 c-3 -12 -31 -179 -51 -316 -13 -82 -22 -86 -345 -134 -99
-14 -127 -25 -90 -33 23 -5 161 -28 338 -57 63 -11 75 -16 83 -36 5 -13 20
-99 34 -191 32 -212 34 -221 45 -202 4 8 18 74 29 145 12 72 27 158 33 192 5
34 16 67 23 73 7 6 66 20 131 31 170 28 277 49 282 54 7 7 -14 12 -103 25
-186 28 -297 50 -310 60 -7 6 -19 43 -25 83 -40 254 -62 345 -74 306z"/>
<path d="M4715 7314 c-44 -92 -58 -202 -52 -399 6 -186 24 -284 93 -504 62
-197 217 -527 332 -706 25 -38 56 -88 70 -110 245 -392 720 -887 1132 -1182
252 -180 521 -321 763 -399 146 -47 219 -62 347 -73 130 -12 307 8 343 39 5 4
-67 10 -160 13 -273 10 -459 62 -764 212 -503 247 -1029 704 -1439 1250 -489
652 -732 1337 -645 1819 8 49 14 91 11 93 -2 2 -16 -22 -31 -53z"/>
<path d="M4531 7163 c-87 -52 -178 -151 -223 -243 -86 -175 -102 -460 -40
-720 l8 -35 7 49 c4 27 7 93 7 147 0 244 96 474 282 676 40 43 48 59 50 92 0
23 1 47 2 53 2 25 -30 18 -93 -19z"/>
<path d="M4525 6903 c-103 -144 -156 -278 -181 -451 -15 -110 -12 -225 16
-562 26 -299 24 -449 -7 -637 -4 -28 -1 -35 28 -53 73 -44 192 -83 259 -83 78
-1 111 17 143 77 20 38 22 55 21 206 0 102 -7 203 -17 265 -33 201 -38 231
-47 265 -10 38 -61 325 -90 510 -21 127 -40 337 -40 433 0 68 -8 107 -21 107
-5 0 -33 -35 -64 -77z"/>
<path d="M4181 6784 c-46 -103 -55 -160 -55 -349 -1 -219 25 -364 104 -590 67
-194 100 -249 100 -168 0 47 -26 228 -34 241 -14 23 -81 292 -97 392 -18 107
-17 354 0 443 7 37 11 70 8 73 -3 3 -15 -16 -26 -42z"/>
<path d="M2622 6668 c-21 -21 -14 -35 56 -115 37 -43 78 -91 92 -108 48 -57
286 -312 420 -449 525 -539 1049 -913 1342 -956 94 -14 137 10 56 30 -99 24
-130 37 -274 110 -281 144 -553 345 -885 656 -134 125 -375 375 -475 493 -16
19 -49 57 -74 85 -25 28 -81 96 -125 151 -99 124 -106 130 -133 103z"/>
<path d="M2453 6498 c-59 -58 -197 -193 -306 -299 -108 -107 -197 -199 -197
-206 0 -17 131 -188 244 -320 298 -346 608 -617 955 -832 304 -189 705 -355
777 -322 21 9 24 14 14 26 -6 8 -28 19 -48 26 -93 29 -298 115 -412 172 -93
47 -126 68 -128 83 -2 16 23 43 99 110 57 49 156 137 222 197 65 59 127 107
138 107 10 0 53 -23 96 -51 200 -130 528 -265 591 -243 38 13 41 42 5 49 -386
76 -1029 584 -1712 1355 -80 90 -165 185 -188 209 l-41 46 -109 -107z m184
-60 c32 -40 67 -84 78 -99 46 -62 147 -182 258 -307 67 -76 117 -141 115 -150
-3 -15 -73 -81 -420 -393 -52 -47 -97 -79 -109 -79 -52 0 -509 530 -509 589 0
22 494 511 515 511 8 0 40 -32 72 -72z m618 -709 c86 -87 274 -256 398 -357
42 -34 77 -66 77 -70 -1 -14 -25 -38 -175 -172 -82 -74 -180 -162 -217 -197
-36 -35 -72 -63 -78 -63 -56 0 -630 432 -630 474 0 7 50 58 112 112 62 54 157
140 212 189 145 132 186 165 205 165 9 0 52 -36 96 -81z"/>
<path d="M1882 5928 c-7 -7 -12 -17 -12 -23 0 -31 295 -369 477 -545 275 -267
600 -512 898 -678 149 -83 375 -181 433 -189 68 -8 46 8 -78 57 -205 80 -585
296 -735 417 -16 13 -57 45 -90 70 -249 194 -617 573 -809 836 -51 68 -63 76
-84 55z"/>
<path d="M1541 5758 c27 -71 113 -232 182 -344 261 -421 641 -812 1022 -1050
119 -74 232 -130 363 -180 152 -58 240 -81 387 -100 101 -13 139 -14 240 -4
296 28 528 130 729 321 73 69 128 139 110 139 -3 0 -32 -15 -63 -34 -31 -19
-92 -51 -136 -71 -343 -156 -666 -168 -1030 -38 -226 81 -590 306 -881 545
-260 213 -356 301 -629 574 -161 162 -298 294 -304 294 -6 0 -3 -21 10 -52z"/>
<path d="M4959 5630 c-35 -27 -74 -50 -86 -50 -21 0 -22 -3 -16 -67 6 -79 26
-118 146 -298 492 -736 1272 -1316 1849 -1374 141 -14 363 22 363 59 0 13 -24
14 -170 11 -179 -4 -268 5 -388 40 -90 27 -94 41 -29 98 56 50 62 65 33 81
-30 15 -33 14 -107 -45 -44 -35 -79 -55 -95 -55 -29 0 -201 85 -319 158 -108
66 -230 160 -230 177 0 8 34 40 75 72 75 58 90 85 58 101 -24 13 -38 6 -108
-48 -93 -73 -96 -74 -141 -41 -109 79 -390 357 -422 417 -10 19 -7 26 32 60
23 22 59 52 79 67 41 31 45 46 19 71 -18 15 -23 13 -105 -50 -65 -50 -89 -64
-102 -57 -42 24 -269 339 -346 481 l-34 63 40 37 c22 20 55 49 74 63 29 21 33
29 27 52 -3 15 -13 27 -20 27 -8 0 -42 -22 -77 -50z"/>
<path d="M4867 5303 c-2 -5 -10 -33 -17 -63 -7 -30 -23 -72 -36 -92 -13 -21
-24 -46 -24 -56 0 -23 190 -276 305 -407 114 -129 391 -403 503 -498 237 -201
471 -356 717 -476 179 -88 211 -101 335 -139 174 -54 348 -78 480 -67 95 8
206 37 272 72 72 38 176 138 221 214 63 107 66 104 -134 102 -165 -2 -172 -3
-216 -29 -26 -15 -85 -37 -132 -50 -479 -132 -1280 288 -1880 986 -116 135
-232 287 -330 433 -53 78 -57 83 -64 70z"/>
<path d="M4699 5032 l-33 -29 19 -29 c90 -139 316 -413 485 -588 336 -346 663
-593 1025 -774 375 -188 720 -252 968 -182 64 19 41 26 -69 22 -202 -8 -456
52 -707 165 -523 237 -1022 648 -1468 1208 -52 66 -109 141 -126 166 -50 72
-56 75 -94 41z"/>
<path d="M4871 4235 c-5 -57 -50 -288 -58 -296 -6 -6 -263 -59 -291 -59 -2 0
-1 -4 2 -9 4 -5 25 -12 49 -15 211 -32 246 -41 251 -69 3 -12 15 -78 26 -147
11 -68 23 -126 25 -128 7 -7 19 54 45 222 5 33 15 65 23 73 8 8 40 18 73 23
32 5 90 14 129 20 124 19 112 26 -102 65 -51 9 -97 23 -103 29 -5 7 -19 67
-30 132 -19 110 -37 183 -39 159z"/>
<path d="M5290 3513 c0 -7 -9 -22 -20 -33 l-21 -21 23 -19 c29 -24 27 -24 63
5 22 18 25 25 13 25 -9 0 -26 12 -37 28 -11 15 -21 21 -21 15z"/>
<path d="M4537 3394 c-4 -4 -7 -20 -7 -36 0 -36 -32 -68 -69 -68 -49 0 -45
-18 6 -32 39 -11 49 -19 57 -43 5 -17 11 -37 14 -45 3 -9 11 5 19 31 11 38 19
48 44 55 35 10 42 27 13 33 -28 5 -54 31 -55 55 -1 30 -13 58 -22 50z"/>
<path d="M3210 2301 c0 -14 9 -25 26 -31 14 -6 42 -24 62 -40 28 -23 47 -30
80 -30 23 0 53 -7 66 -15 13 -9 48 -20 77 -25 65 -12 296 -47 362 -55 62 -8
67 -22 67 -168 0 -61 4 -161 10 -221 14 -161 28 -339 40 -516 15 -212 19 -237
35 -243 16 -7 102 18 123 35 12 10 14 33 9 128 -10 186 -26 390 -39 465 -17
105 -22 463 -8 481 10 10 38 14 119 14 88 0 111 3 139 20 45 27 43 56 -5 77
-28 12 -89 18 -238 24 -230 9 -328 19 -475 49 -165 33 -210 41 -295 50 -44 5
-97 12 -117 16 -34 6 -38 4 -38 -15z"/>
<path d="M1430 2112 c-27 -13 -36 -24 -38 -48 -4 -37 43 -114 68 -114 21 0 50
31 50 54 0 9 10 35 23 57 22 39 22 40 3 54 -26 20 -63 19 -106 -3z"/>
<path d="M7341 2105 c-29 -7 -58 -18 -64 -24 -6 -6 -9 -70 -8 -164 3 -189 2
-191 -92 -147 -82 38 -119 39 -146 4 -27 -35 -26 -45 7 -77 30 -29 151 -87
181 -87 10 0 29 -9 42 -19 23 -19 24 -24 25 -183 0 -89 6 -210 12 -267 7 -66
7 -111 2 -122 -12 -22 4 -240 20 -270 10 -18 17 -20 48 -14 82 15 112 62 112
172 -1 99 -16 214 -30 223 -6 4 -9 18 -6 31 3 13 8 114 10 224 2 110 7 208 11
217 4 10 31 24 63 33 109 32 163 73 148 112 -7 16 -50 14 -149 -8 -28 -7 -52
-8 -57 -3 -5 5 -14 84 -21 174 -6 91 -15 175 -20 188 -10 25 -13 25 -88 7z"/>
<path d="M7938 2003 c-25 -29 -35 -54 -48 -124 -16 -88 -19 -311 -4 -330 7 -8
15 -45 18 -84 25 -285 31 -295 143 -240 37 19 56 36 69 63 21 45 71 114 89
125 23 12 69 -36 84 -89 8 -27 20 -70 27 -95 8 -25 22 -53 33 -63 18 -16 22
-16 75 -1 88 26 113 89 51 129 -15 10 -25 26 -25 40 0 27 -16 81 -35 116 -7
14 -16 48 -20 75 -13 97 -19 101 -105 85 -58 -11 -107 -47 -112 -83 -3 -23
-75 -54 -101 -44 -24 9 -32 141 -17 297 7 74 15 159 17 188 l5 52 -65 0 c-48
0 -68 -4 -79 -17z m90 -421 c2 -7 -3 -12 -12 -12 -9 0 -16 7 -16 16 0 17 22
14 28 -4z"/>
<path d="M800 1990 c-228 -21 -373 -215 -340 -452 11 -73 40 -156 71 -200 25
-34 118 -98 177 -121 61 -24 85 -23 232 14 106 26 219 186 169 236 -17 17 -35
6 -75 -49 -41 -55 -125 -123 -165 -133 -57 -14 -185 79 -231 168 -64 126 -29
312 79 424 49 50 65 52 148 18 103 -43 225 -29 225 25 0 24 -51 60 -92 65 -81
10 -128 11 -198 5z"/>
<path d="M9761 1770 c-74 -27 -77 -31 -57 -84 10 -25 15 -50 11 -56 -6 -9 1
-111 24 -372 7 -75 17 -121 33 -155 20 -43 27 -48 59 -51 53 -4 86 12 108 56
17 33 18 46 10 77 -6 21 -9 54 -6 74 2 20 -2 95 -11 167 -8 73 -12 144 -8 159
7 27 7 27 74 20 37 -4 79 -13 94 -21 33 -17 76 -17 105 -1 31 18 66 65 59 82
-7 20 -52 38 -101 40 -22 1 -51 6 -65 12 -78 31 -221 73 -246 73 -16 -1 -53
-10 -83 -20z"/>
<path d="M3265 1771 c-11 -4 -50 -14 -86 -20 -36 -7 -83 -23 -105 -36 -21 -13
-55 -33 -75 -44 -76 -42 -128 -233 -96 -350 9 -31 19 -68 22 -83 3 -15 19 -43
36 -63 34 -38 81 -56 164 -60 63 -4 203 35 265 74 25 16 55 32 67 36 29 8 82
71 112 130 19 39 21 51 12 71 -9 21 -14 23 -31 14 -12 -6 -36 -33 -55 -59 -19
-26 -61 -71 -94 -99 -55 -48 -65 -53 -134 -64 -93 -14 -110 -5 -168 84 -64
100 -57 112 73 124 75 8 170 48 312 131 70 41 115 110 97 149 -18 39 -82 62
-196 68 -55 4 -109 2 -120 -3z m103 -116 c33 -31 -33 -86 -132 -109 -37 -9
-133 11 -140 30 -3 8 8 29 24 48 26 29 39 35 98 43 75 11 130 7 150 -12z"/>
<path d="M6605 1774 c-11 -3 -55 -14 -98 -25 -44 -10 -97 -31 -120 -47 -23
-16 -54 -36 -68 -45 -34 -21 -79 -131 -86 -214 -8 -91 29 -234 71 -277 37 -36
104 -55 181 -51 76 4 205 43 249 76 22 16 46 29 53 29 22 0 96 82 122 134 19
39 21 52 12 72 -9 21 -14 23 -31 14 -11 -6 -38 -35 -60 -65 -22 -29 -57 -66
-77 -82 -21 -15 -42 -33 -48 -40 -15 -18 -53 -30 -118 -38 -72 -9 -94 4 -148
87 -62 96 -53 112 67 124 63 6 161 41 241 87 115 65 134 80 158 127 14 27 22
56 19 65 -4 8 -25 26 -48 40 -34 20 -59 25 -146 29 -58 3 -114 3 -125 0z m96
-110 c5 -3 9 -16 9 -29 0 -31 -40 -62 -107 -81 -48 -14 -62 -14 -111 -2 -30 7
-57 18 -59 25 -2 6 9 26 26 45 23 26 42 36 88 45 55 11 134 10 154 -3z"/>
<path d="M9090 1765 c-30 -8 -74 -19 -98 -25 -43 -10 -129 -61 -168 -100 -27
-26 -61 -119 -69 -192 -10 -80 27 -228 68 -275 74 -84 270 -74 442 23 85 48
132 94 162 160 37 82 10 112 -47 53 -16 -18 -30 -35 -30 -40 0 -4 -33 -37 -74
-73 -71 -64 -76 -66 -149 -78 -93 -14 -110 -6 -168 84 -64 100 -58 110 71 124
41 4 91 19 137 40 40 19 75 34 78 34 2 0 29 16 59 35 30 19 59 35 64 35 25 0
85 103 77 131 -4 10 -25 30 -48 43 -55 32 -222 44 -307 21z m138 -109 c34 -33
-41 -93 -138 -110 -40 -7 -132 13 -137 31 -2 6 9 26 25 44 24 27 41 35 98 45
75 14 131 10 152 -10z"/>
<path d="M4680 1658 c-19 -5 -42 -15 -50 -22 -8 -7 -36 -23 -62 -35 -74 -35
-98 -70 -98 -144 0 -105 44 -216 104 -262 48 -37 143 -51 216 -31 93 24 180
75 218 129 30 42 34 55 36 115 2 94 -19 156 -66 202 -22 20 -56 42 -77 49 -46
13 -172 13 -221 -1z m45 -108 c3 -5 30 -17 60 -26 63 -20 91 -46 110 -100 20
-59 -16 -139 -73 -163 -23 -10 -37 -9 -78 6 -45 16 -52 24 -82 83 -28 55 -32
73 -28 114 7 61 29 96 61 96 13 0 26 -4 30 -10z"/>
<path d="M1463 1635 c-40 -17 -42 -38 -13 -151 12 -43 25 -130 31 -193 5 -63
14 -120 20 -127 7 -8 31 -14 56 -14 56 0 93 33 93 83 0 18 -3 37 -7 41 -5 4
-8 49 -9 99 -2 161 -14 246 -38 262 -26 19 -91 19 -133 0z"/>
<path d="M5550 1611 c-8 -6 -30 -11 -48 -11 -60 0 -183 -82 -219 -146 -28 -49
-29 -110 -3 -144 11 -14 20 -34 20 -45 1 -11 19 -40 40 -64 32 -34 43 -41 54
-32 11 9 17 6 30 -14 10 -15 23 -24 29 -22 7 2 25 -2 40 -10 17 -9 36 -11 50
-6 12 4 31 8 42 9 11 1 52 5 92 9 70 8 72 7 82 -16 16 -37 44 -189 45 -244 1
-27 7 -66 13 -85 7 -19 14 -73 16 -120 2 -47 7 -92 11 -101 4 -10 -3 -26 -21
-45 -15 -17 -36 -45 -45 -62 -21 -39 -36 -40 -88 -7 -22 14 -43 25 -47 25 -5
1 -26 9 -47 19 -31 15 -45 17 -63 8 -29 -13 -33 -8 -36 39 -3 37 -5 39 -38 42
-29 2 -37 8 -47 35 -10 26 -14 29 -22 17 -16 -25 -11 -59 10 -70 11 -6 20 -21
20 -35 0 -14 7 -25 16 -27 9 -2 26 -21 38 -43 18 -31 29 -40 51 -40 17 -1 36
-11 49 -27 17 -20 27 -25 52 -21 26 4 32 1 37 -17 5 -21 10 -22 49 -16 94 15
191 55 211 88 8 13 18 45 22 73 4 27 14 63 22 79 30 57 19 351 -14 405 -10 16
-13 36 -9 62 4 25 1 52 -8 74 -12 27 -13 53 -5 131 11 119 1 161 -50 217 -21
23 -44 53 -50 65 -19 36 -109 73 -194 78 -42 3 -78 1 -87 -5z m59 -131 c40
-25 55 -43 80 -95 60 -123 38 -161 -102 -181 -48 -6 -48 -6 -93 42 -25 27 -47
60 -50 74 -3 14 -10 37 -16 53 -10 26 -7 31 46 82 31 30 63 55 71 55 8 0 37
-14 64 -30z"/>
<path d="M2373 1579 c-27 -13 -54 -36 -74 -67 -80 -119 -99 -121 -99 -12 0 77
-1 80 -25 86 -36 9 -89 -3 -120 -28 l-28 -22 7 -120 c6 -126 22 -239 38 -268
11 -22 48 -23 91 -4 40 18 58 35 127 114 l55 64 22 -26 c12 -15 27 -43 33 -64
18 -65 53 -117 81 -120 32 -4 139 42 139 60 0 7 -25 86 -56 176 -30 90 -59
183 -62 205 -7 41 -9 42 -47 44 -23 1 -58 -7 -82 -18z"/>
</g>
</svg>
