<?xml version="1.0" standalone="no"?>
<!DOCTYPE svg PUBLIC "-//W3C//DTD SVG 20010904//EN"
 "http://www.w3.org/TR/2001/REC-SVG-20010904/DTD/svg10.dtd">
<svg version="1.0" xmlns="http://www.w3.org/2000/svg"
 width="906.000000pt" height="696.000000pt" viewBox="0 0 906.000000 696.000000"
 preserveAspectRatio="xMidYMid meet">

<g transform="translate(0.000000,696.000000) scale(0.100000,-0.100000)"
fill="#000000" stroke="none">
<path d="M4845 6310 c-255 -27 -490 -178 -614 -394 -92 -161 -132 -331 -137
-591 l-4 -170 38 110 c134 392 407 609 802 640 170 13 465 -41 675 -125 198
-78 465 -227 683 -378 482 -335 1024 -888 1423 -1452 353 -498 594 -977 738
-1465 15 -49 49 -197 56 -240 3 -22 10 -60 16 -85 28 -140 28 -456 -2 -585
-49 -213 -126 -359 -258 -490 -94 -93 -197 -155 -326 -196 -57 -19 -105 -37
-105 -40 -1 -25 196 -24 340 1 233 42 385 131 518 304 362 470 226 1445 -346
2471 -197 355 -486 766 -747 1065 -542 621 -1100 1082 -1632 1348 -245 123
-397 182 -588 227 -191 45 -381 61 -530 45z"/>
<path d="M3153 5574 c-7 -21 -15 -59 -18 -83 -10 -73 -15 -78 -112 -91 -49 -7
-97 -16 -108 -20 -23 -8 -14 -11 118 -31 88 -13 92 -18 103 -97 3 -28 12 -59
19 -69 11 -15 15 -7 29 58 10 41 20 80 24 86 4 7 52 19 107 28 55 9 101 18
103 20 4 4 -32 11 -123 25 -38 6 -76 17 -84 24 -7 8 -21 53 -30 101 l-17 88
-11 -39z"/>
<path d="M4805 5475 c-160 -26 -277 -88 -393 -209 -93 -97 -145 -193 -183
-341 -21 -78 -24 -113 -24 -265 1 -178 12 -274 54 -440 164 -652 611 -1381
1210 -1979 521 -518 1040 -854 1571 -1016 197 -60 443 -81 602 -50 167 32 265
82 379 195 147 147 219 350 219 621 0 839 -722 2029 -1705 2810 -624 496
-1272 748 -1730 674z m479 -288 c160 -59 365 -224 503 -407 73 -96 154 -255
177 -346 63 -248 -60 -406 -282 -365 -96 18 -250 97 -355 181 -189 153 -368
412 -413 598 -20 84 -18 198 5 247 55 119 194 153 365 92z m1276 -834 c232
-57 516 -316 658 -599 116 -232 99 -445 -40 -513 -156 -75 -420 39 -658 285
-345 356 -416 783 -140 840 60 13 83 11 180 -13z m-1499 -234 c385 -125 777
-633 728 -942 -13 -77 -45 -126 -106 -159 -68 -38 -117 -43 -203 -24 -300 69
-636 406 -749 755 -28 84 -28 209 -2 266 52 113 181 153 332 104z m1132 -567
c137 -61 281 -269 264 -380 -4 -24 -17 -47 -37 -64 -45 -41 -87 -41 -176 2
-116 56 -237 216 -251 331 -14 122 70 169 200 111z m1108 -613 c224 -86 486
-339 604 -586 138 -286 99 -484 -104 -533 -105 -25 -301 54 -471 191 -187 150
-327 346 -401 559 -32 91 -33 237 -3 294 60 115 198 142 375 75z m-1088 -69
c154 -64 320 -191 436 -333 53 -66 151 -208 151 -221 0 -3 13 -33 30 -68 145
-307 22 -546 -248 -485 -363 82 -772 563 -772 906 0 112 36 181 113 221 64 33
186 25 290 -20z"/>
<path d="M2010 5163 c0 -31 -23 -50 -70 -58 -53 -9 -51 -22 6 -31 39 -6 48
-11 59 -37 l13 -31 15 31 c14 26 24 31 67 37 61 8 65 23 7 31 -54 8 -60 12
-80 50 -14 26 -16 27 -17 8z"/>
<path d="M4196 5043 c-37 -56 -85 -185 -101 -272 -18 -90 -20 -339 -4 -444 48
-324 126 -551 324 -942 124 -246 206 -376 417 -670 113 -157 252 -318 458
-529 496 -509 1032 -871 1535 -1038 189 -63 228 -73 332 -88 94 -13 298 -13
365 1 63 13 163 46 198 66 23 13 18 13 -45 6 -127 -15 -362 -9 -460 11 -353
72 -687 221 -1075 479 -534 354 -1135 995 -1494 1590 -293 487 -467 988 -483
1395 -7 155 17 329 59 435 17 43 2 43 -26 0z"/>
<path d="M2650 5036 c-5 -15 -10 -36 -10 -47 0 -10 -5 -38 -10 -61 -14 -61
-50 -283 -50 -311 0 -13 -6 -31 -13 -42 -14 -19 -17 -19 -342 -71 -88 -14
-164 -29 -168 -34 -11 -10 -6 -11 243 -50 107 -17 211 -34 230 -38 41 -9 39
-6 70 -207 28 -181 49 -288 59 -298 8 -8 18 40 57 298 20 137 31 184 45 196
10 9 44 20 76 24 48 5 188 27 392 61 18 3 30 9 25 14 -5 4 -119 26 -253 48
-146 24 -247 45 -251 53 -5 7 -11 33 -15 58 -16 112 -67 426 -71 430 -2 2 -8
-8 -14 -23z"/>
<path d="M3970 4783 c-118 -61 -233 -178 -294 -300 -90 -178 -116 -472 -65
-728 23 -119 34 -162 46 -190 11 -26 12 -2 11 165 -2 211 5 267 52 420 52 171
140 322 263 454 41 44 57 70 61 98 3 21 9 56 12 78 3 24 2 40 -4 40 -6 0 -42
-17 -82 -37z"/>
<path d="M3951 4500 c-68 -89 -100 -140 -135 -214 -105 -222 -124 -401 -91
-836 30 -376 34 -456 34 -600 1 -133 -4 -171 -36 -305 -5 -25 35 -50 165 -101
157 -63 279 -56 329 19 40 58 53 122 53 260 0 124 -4 167 -36 362 -35 210 -44
265 -64 365 -69 346 -113 657 -131 933 -9 124 -17 187 -24 187 -6 0 -35 -31
-64 -70z"/>
<path d="M3564 4388 c-72 -137 -94 -245 -94 -464 0 -266 46 -484 173 -814 60
-156 67 -163 67 -60 0 131 -16 241 -51 348 -61 190 -91 330 -110 525 -13 138
-1 307 33 430 11 43 18 80 15 83 -3 3 -18 -18 -33 -48z"/>
<path d="M1742 4197 c-12 -13 -22 -29 -22 -36 0 -14 299 -358 454 -521 593
-624 1057 -1011 1446 -1206 155 -78 257 -113 352 -120 57 -4 77 -2 93 11 25
20 11 30 -55 39 -77 10 -176 49 -325 126 -550 286 -1141 806 -1748 1538 -88
105 -163 192 -167 192 -4 0 -16 -10 -28 -23z"/>
<path d="M1315 3779 c-195 -194 -355 -355 -355 -359 0 -11 103 -151 199 -270
544 -675 1204 -1164 1886 -1396 134 -45 181 -51 220 -25 l29 20 -34 15 c-19 8
-92 35 -163 60 -239 87 -517 224 -517 256 0 10 46 57 108 111 59 52 127 112
152 135 166 152 263 234 275 234 8 0 36 -16 61 -36 175 -133 578 -314 700
-314 20 0 43 9 61 24 l28 24 -28 11 c-16 6 -37 11 -48 11 -35 0 -211 70 -319
127 -462 245 -1070 787 -1742 1555 -76 86 -142 159 -148 163 -5 3 -169 -153
-365 -346z m380 223 c6 -4 73 -86 149 -182 76 -96 205 -251 287 -343 82 -92
149 -174 149 -181 0 -8 -39 -49 -87 -93 -49 -43 -113 -101 -143 -129 -30 -28
-75 -69 -100 -91 -25 -21 -96 -85 -158 -141 -62 -56 -118 -102 -124 -102 -28
0 -267 256 -430 462 -122 154 -161 213 -154 236 4 11 62 72 129 135 67 64 194
188 282 276 152 152 176 171 200 153z m770 -883 c105 -107 342 -320 429 -386
87 -66 116 -94 116 -114 0 -10 -78 -87 -177 -177 -98 -87 -216 -194 -262 -236
-47 -42 -90 -76 -96 -76 -51 0 -615 412 -708 517 -24 27 -15 44 51 98 56 47
339 298 459 408 34 31 71 57 81 57 10 0 58 -41 107 -91z"/>
<path d="M885 3350 c-14 -16 -16 -25 -8 -43 17 -37 158 -208 264 -322 36 -38
101 -108 144 -155 366 -395 888 -788 1330 -1000 204 -99 279 -128 352 -140
109 -18 110 -6 0 36 -418 158 -831 410 -1212 739 -236 204 -641 637 -778 833
-28 39 -56 72 -62 72 -7 0 -20 -9 -30 -20z"/>
<path d="M450 3248 c0 -18 134 -292 196 -399 200 -350 529 -750 824 -1003 234
-201 547 -401 763 -487 96 -39 281 -100 367 -122 73 -18 115 -21 305 -21 235
-1 272 4 431 55 259 82 503 249 648 443 20 27 35 51 32 54 -3 2 -30 -12 -61
-33 -134 -89 -348 -178 -520 -217 -116 -26 -372 -35 -499 -18 -370 49 -724
220 -1209 584 -330 247 -648 534 -1069 965 -115 117 -208 206 -208 199z"/>
<path d="M4437 3010 c-84 -64 -100 -70 -116 -43 -18 33 -22 5 -13 -95 9 -99
10 -101 67 -194 325 -518 638 -861 1162 -1269 139 -108 445 -280 637 -359 204
-82 358 -115 541 -114 112 0 155 5 218 22 202 57 179 93 -45 71 -183 -17 -354
-1 -520 51 -93 29 -89 55 20 129 17 12 32 28 32 36 0 13 -41 45 -58 45 -5 0
-47 -29 -93 -65 -52 -40 -93 -65 -109 -65 -84 0 -620 329 -628 386 -2 15 19
36 88 88 49 37 90 74 90 82 0 7 -13 20 -29 29 -29 14 -30 14 -131 -60 -57 -41
-106 -75 -111 -75 -18 0 -144 114 -320 289 -193 192 -225 231 -216 255 3 8 47
45 96 81 50 37 91 72 91 79 0 23 -38 49 -62 42 -13 -3 -60 -35 -105 -71 -71
-57 -85 -65 -103 -55 -26 14 -204 246 -295 385 -103 157 -138 221 -131 243 4
10 34 39 69 64 34 25 71 56 82 68 18 19 18 24 5 47 -8 15 -19 28 -25 29 -5 2
-45 -23 -88 -56z"/>
<path d="M4316 2644 c-3 -9 -6 -27 -6 -41 0 -43 -29 -126 -60 -172 -35 -54
-40 -44 104 -235 335 -445 794 -884 1226 -1173 335 -224 703 -389 993 -448
165 -33 352 -36 492 -7 200 42 369 172 464 359 47 92 45 97 -41 87 -40 -4
-132 -7 -205 -6 -132 2 -132 2 -183 -29 -28 -17 -90 -43 -138 -57 -75 -22
-107 -25 -237 -26 -93 -1 -171 4 -205 12 -30 7 -82 20 -116 28 -236 55 -515
189 -804 385 -458 311 -861 725 -1183 1217 -44 67 -84 122 -88 122 -4 0 -10
-7 -13 -16z"/>
<path d="M4124 2317 l-36 -32 66 -93 c284 -400 708 -840 1084 -1124 201 -152
360 -254 572 -366 356 -188 756 -293 1004 -262 131 16 319 70 302 87 -3 3 -41
0 -83 -8 -105 -19 -316 -16 -423 6 -47 9 -104 21 -127 26 -115 23 -368 121
-549 212 -447 225 -929 610 -1335 1068 -93 104 -305 372 -359 451 -27 40 -52
67 -63 68 -9 0 -33 -15 -53 -33z"/>
</g>
</svg>
